<?xml version="1.0" standalone="no"?>
<svg viewBox="0 0 200 200" xmlns="http://www.w3.org/2000/svg">
  <path fill="#10B7B0" d="M34.9,-63.5C46.4,-53.8,57.7,-46.8,67.8,-36.7C77.9,-26.5,86.8,-13.3,88.8,1.1C90.7,15.5,85.6,31,76,42C66.4,53,52.3,59.6,38.9,66.1C25.5,72.5,12.7,78.9,-0.5,79.8C-13.8,80.8,-27.6,76.2,-40.1,69.2C-52.6,62.3,-63.9,52.8,-71.3,40.9C-78.8,28.9,-82.5,14.5,-82.5,0C-82.5,-14.4,-78.7,-28.9,-71.2,-40.8C-63.7,-52.7,-52.5,-62.1,-40,-71.2C-27.5,-80.3,-13.7,-89.1,-1,-87.3C11.7,-85.6,23.4,-73.2,34.9,-63.5Z" transform="translate(100 100)" />
</svg>
